<svg width="237.60004882812498px" height="135.21750488281248px" xmlns="http://www.w3.org/2000/svg" viewBox="131.19997558593752 7.391247558593761 237.60004882812498 135.21750488281248" style="background: rgb(255, 255, 255);" preserveAspectRatio="xMidYMid"><defs><filter id="editing-extrusion" x="-100%" y="-100%" width="300%" height="300%"><feFlood result="color1" flood-color="#bae2ff"></feFlood><feConvolveMatrix order="8,8" divisor="1" kernelMatrix="1 0 0 0 0 0 0 0 0 1 0 0 0 0 0 0 0 0 1 0 0 0 0 0 0 0 0 1 0 0 0 0 0 0 0 0 1 0 0 0 0 0 0 0 0 1 0 0 0 0 0 0 0 0 1 0 0 0 0 0 0 0 0 1" in="SourceAlpha" result="extrude"></feConvolveMatrix><feComposite in="color1" in2="extrude" result="comp-extrude" operator="in"></feComposite><feOffset dx="4" dy="4" in="comp-extrude" result="offset-extrude"></feOffset><feMerge><feMergeNode in="offset-extrude"></feMergeNode><feMergeNode in="SourceGraphic"></feMergeNode></feMerge></filter></defs><g filter="url(#editing-extrusion)"><g transform="translate(170.8949966430664, 98.04000091552734)"><path d="M9.73-4.42L30.78-4.42L30.78 0L2.50 0L2.50-3.78L22.21-28.99L3.90-28.99L3.90-33.41L29.38-33.41L29.38-29.63L9.73-4.42ZM67.33-16.70L67.33-14.85L43.65-14.85L43.65-14.85Q44.16-9.92 46.94-7.01L46.94-7.01L46.94-7.01Q49.73-4.10 54.53-4.10L54.53-4.10L54.53-4.10Q57.41-4.10 60.13-5.28L60.13-5.28L60.13-5.28Q62.85-6.46 65.66-8.77L65.66-8.77L65.92-8.77L65.92-3.14L65.92-3.14Q63.10-1.09 60.35-0.16L60.35-0.16L60.35-0.16Q57.60 0.77 54.46 0.77L54.46 0.77L54.46 0.77Q49.34 0.77 45.57-1.47L45.57-1.47L45.57-1.47Q41.79-3.71 39.78-7.71L39.78-7.71L39.78-7.71Q37.76-11.71 37.76-16.90L37.76-16.90L37.76-16.90Q37.76-21.82 39.58-25.76L39.58-25.76L39.58-25.76Q41.41-29.70 44.80-31.94L44.80-31.94L44.80-31.94Q48.19-34.18 52.74-34.18L52.74-34.18L52.74-34.18Q57.34-34.18 60.64-31.90L60.64-31.90L60.64-31.90Q63.94-29.63 65.63-25.66L65.63-25.66L65.63-25.66Q67.33-21.70 67.33-16.70L67.33-16.70ZM52.80-29.50L52.80-29.50Q48.83-29.50 46.46-26.62L46.46-26.62L46.46-26.62Q44.10-23.74 43.65-19.20L43.65-19.20L61.50-19.20L61.50-19.20Q61.06-23.87 58.91-26.69L58.91-26.69L58.91-26.69Q56.77-29.50 52.80-29.50L52.80-29.50ZM85.31-45.31L85.31-33.41L94.53-33.41L94.53-28.54L85.31-28.54L85.31-9.41L85.31-9.41Q85.31-7.04 86.37-5.60L86.37-5.60L86.37-5.60Q87.42-4.16 89.47-4.16L89.47-4.16L89.47-4.16Q90.88-4.16 92-4.45L92-4.45L92-4.45Q93.12-4.74 94.53-5.38L94.53-5.38L94.53-0.38L94.53-0.38Q93.06 0.32 91.71 0.54L91.71 0.54L91.71 0.54Q90.37 0.77 88.45 0.77L88.45 0.77L88.45 0.77Q84.35 0.77 82.02-1.86L82.02-1.86L82.02-1.86Q79.68-4.48 79.68-8.83L79.68-8.83L79.68-28.54L73.28-28.54L73.28-33.41L79.68-33.41L79.68-42.37L85.31-45.31ZM110.91-45.31L110.91-33.41L120.13-33.41L120.13-28.54L110.91-28.54L110.91-9.41L110.91-9.41Q110.91-7.04 111.97-5.60L111.97-5.60L111.97-5.60Q113.02-4.16 115.07-4.16L115.07-4.16L115.07-4.16Q116.48-4.16 117.60-4.45L117.60-4.45L117.60-4.45Q118.72-4.74 120.13-5.38L120.13-5.38L120.13-0.38L120.13-0.38Q118.66 0.32 117.31 0.54L117.31 0.54L117.31 0.54Q115.97 0.77 114.05 0.77L114.05 0.77L114.05 0.77Q109.95 0.77 107.62-1.86L107.62-1.86L107.62-1.86Q105.28-4.48 105.28-8.83L105.28-8.83L105.28-28.54L98.88-28.54L98.88-33.41L105.28-33.41L105.28-42.37L110.91-45.31ZM155.71 0L150.08 0L149.18-4.80L149.18-4.80Q146.69-2.05 143.78-0.64L143.78-0.64L143.78-0.64Q140.86 0.77 137.22 0.77L137.22 0.77L137.22 0.77Q132.67 0.77 129.86-1.82L129.86-1.82L129.86-1.82Q127.04-4.42 127.04-8.70L127.04-8.70L127.04-8.70Q127.04-14.27 131.52-16.90L131.52-16.90L131.52-16.90Q136-19.52 143.04-19.52L143.04-19.52L143.04-19.52Q145.60-19.52 148.67-19.20L148.67-19.20L148.67-21.50L148.67-21.50Q148.67-24.96 146.78-27.04L146.78-27.04L146.78-27.04Q144.90-29.12 141.89-29.12L141.89-29.12L141.89-29.12Q138.30-29.12 135.39-28.16L135.39-28.16L135.39-28.16Q132.48-27.20 129.41-25.15L129.41-25.15L129.41-30.59L129.41-30.59Q132.42-32.58 135.55-33.38L135.55-33.38L135.55-33.38Q138.69-34.18 142.72-34.18L142.72-34.18L142.72-34.18Q147.84-34.18 151.07-30.91L151.07-30.91L151.07-30.91Q154.30-27.65 154.30-22.27L154.30-22.27L154.30-7.42L155.71 0ZM138.37-3.97L138.37-3.97Q141.44-3.97 143.87-5.25L143.87-5.25L143.87-5.25Q146.30-6.53 148.67-8.96L148.67-8.96L148.67-15.23L142.78-15.23L142.78-15.23Q133.12-15.23 133.12-9.02L133.12-9.02L133.12-9.02Q133.12-6.72 134.59-5.34L134.59-5.34L134.59-5.34Q136.06-3.97 138.37-3.97L138.37-3.97Z" fill="#5699d2"></path></g></g><style>text {
  font-size: 64px;
  font-family: Arial Black;
  dominant-baseline: central;
  text-anchor: middle;
}</style></svg>